<svg width="106" height="78" viewBox="0 0 106 78" fill="none" xmlns="http://www.w3.org/2000/svg">
<path d="M101.646 27.092V30.3333H95.6038V31.5293H102.622V27.092H101.646Z" fill="white"/>
<path d="M20.8796 24.076H17.2227V15.8947H20.8796C24.3276 15.8947 26.2258 16.9347 26.2258 19.8293C26.2258 22.672 24.3276 24.076 20.8796 24.076Z" fill="white"/>
<path d="M0 0V78H84.3368V0H0ZM60.3052 18.0613H64.0319V21.7707H60.3052V18.0613ZM64.1886 27.8893V31.5987H60.462V27.8893H64.1886ZM29.2558 64.3933H26.5392V53.3347C26.5392 51.168 26.8875 47.4067 27.0094 45.5173H26.9049L25.6511 49.8333L22.4643 58.5347H20.4268L17.3097 49.8333L16.021 45.5173H15.9514C16.1603 47.4067 16.4216 51.1853 16.4216 53.3347V64.3933H13.8094V42.276H17.2574L20.3746 51.7227L21.4542 55.2933H21.5936L22.6384 51.7227L25.7904 42.276H29.2558V64.3933ZM26.5044 35.7067L21.1582 26.3813H17.2226V35.7067H14.3493V13.6067H21.2801C25.773 13.6067 29.0642 15.2187 29.0642 19.8293C29.0642 23.2613 27.079 25.3067 24.0664 26.052L29.6911 35.6893H26.5044V35.7067ZM48.7945 44.668H43.2742V62.0013H48.7945V64.3933H34.9154V62.0013H40.4357V44.668H34.9154V42.276H48.7945V44.668ZM49.2298 35.7067H35.1592V13.6067H48.899V15.9987H37.9977V22.8973H47.1924V25.2893H37.9977V33.2973H49.2298V35.7067ZM67.3406 64.3933L64.0145 58.4653C63.405 57.356 62.7955 56.2467 62.0466 54.8947H61.9073C61.263 56.2467 60.6884 57.356 60.1137 58.4653L56.7876 64.3933H53.8098L60.4445 52.9707L54.2451 42.2933H57.3971L60.5142 47.9267C61.0889 48.932 61.5939 49.8507 62.3079 51.168H62.4472C63.0567 49.8507 63.492 48.9493 64.0319 47.9267L67.0793 42.2933H70.092L63.8926 53.1093L70.5274 64.3933H67.3406Z" fill="white"/>
<path d="M101.699 5.40802C102.5 5.20002 102.918 4.76669 102.918 4.09069C102.918 3.27602 102.465 2.86002 101.821 2.49602V2.46136L102.744 2.35736V1.40402H95.7257V2.58269H100.811C101.542 2.92936 101.89 3.24136 101.89 3.72669C101.89 4.24669 101.472 4.43736 100.654 4.43736H95.7083V5.54669H100.793C101.525 5.92802 101.873 6.18802 101.873 6.67336C101.873 7.19336 101.455 7.41869 100.637 7.41869H95.6909V8.59736H100.724C102.117 8.59736 102.883 8.02536 102.883 7.03736C102.918 6.24002 102.448 5.80669 101.699 5.40802Z" fill="white"/>
<path d="M99.2433 10.1747C96.9098 10.1747 95.5515 11.8387 95.5515 13.936C95.5515 15.0627 95.9346 15.9467 96.3874 16.64L97.171 16.2067C96.7705 15.5653 96.5093 14.9067 96.5093 14.0747C96.5093 12.6187 97.3103 11.492 98.9124 11.3533V16.8653C99.104 16.9 99.3652 16.9173 99.6438 16.9173C101.629 16.9173 102.935 15.7387 102.935 13.728C102.918 11.8733 101.525 10.1747 99.2433 10.1747ZM99.818 15.86V11.4053C101.211 11.6307 101.977 12.636 101.977 13.78C101.977 14.976 101.263 15.756 99.818 15.86Z" fill="white"/>
<path d="M103.301 23.9374L102.012 23.9894V23.9547C102.57 23.3307 102.9 22.6894 102.9 21.8574C102.9 20.2107 101.49 18.6854 99.2086 18.6854C96.8751 18.6854 95.5342 19.8987 95.5342 21.7014C95.5342 22.5854 96.0392 23.4174 96.6313 23.9894V24.024L95.7083 24.128V25.116H106V23.92H103.301V23.9374ZM101.089 23.9374H97.5891C96.8925 23.3134 96.5442 22.672 96.5442 21.9787C96.5442 20.696 97.5368 19.916 99.226 19.916C100.828 19.916 101.89 20.8867 101.89 22.1C101.89 22.7067 101.681 23.296 101.089 23.9374Z" fill="white"/>
<path d="M101.786 34.9787L100.985 35.4467C101.385 36.088 101.821 36.9894 101.821 37.8907C101.821 39.2427 101.02 39.7107 100.062 39.7454C99.7657 36.14 98.9995 34.6667 97.4322 34.6667C96.1784 34.6667 95.447 35.7414 95.447 37.0587C95.447 38.0294 95.9694 39.052 96.5789 39.7974V39.832L95.6212 39.936V40.924H99.9225C101.664 40.924 102.813 39.988 102.813 38.0814C102.796 36.868 102.239 35.6894 101.786 34.9787ZM97.4322 39.7454C96.7705 38.948 96.3874 38.168 96.3874 37.3707C96.3874 36.5734 96.7008 35.8454 97.5019 35.8454C98.4249 35.8454 99.0169 36.7467 99.2433 39.7454H97.4322Z" fill="white"/>
<path d="M105.408 30.108H103.997V31.512H105.408V30.108Z" fill="white"/>
</svg>
